<?xml version="1.0" encoding="UTF-8"?>
<!DOCTYPE svg PUBLIC "-//W3C//DTD SVG 1.1//EN" "http://www.w3.org/Graphics/SVG/1.1/DTD/svg11.dtd">
<!-- Creator: CorelDRAW -->
<svg xmlns="http://www.w3.org/2000/svg" xml:space="preserve" width="29px" height="29px" style="shape-rendering:geometricPrecision; text-rendering:geometricPrecision; image-rendering:optimizeQuality; fill-rule:evenodd; clip-rule:evenodd"
viewBox="0 0 2048 2048"
 xmlns:xlink="http://www.w3.org/1999/xlink">
 <defs>
  <style type="text/css">
   <![CDATA[
    .fil2 {fill:none}
    .fil12 {fill:#056EAF}
    .fil11 {fill:#212121}
    .fil4 {fill:#7EB6B1}
    .fil3 {fill:#B2DFDB}
    .fil1 {fill:#F57C00}
    .fil0 {fill:#FF9800}
    .fil9 {fill:#0072BD;fill-rule:nonzero}
    .fil8 {fill:#007DCF;fill-rule:nonzero}
    .fil6 {fill:#0080CF;fill-rule:nonzero}
    .fil5 {fill:#0091EA;fill-rule:nonzero}
    .fil10 {fill:#026CB2;fill-rule:nonzero}
    .fil7 {fill:#0277BD;fill-rule:nonzero}
   ]]>
  </style>
   <clipPath id="id0">
    <path d="M1024 -0.0011811c565.541,0 1024,458.461 1024,1024 0,565.541 -458.461,1024 -1024,1024 -565.541,0 -1024,-458.461 -1024,-1024 0,-565.541 458.461,-1024 1024,-1024z"/>
   </clipPath>
 </defs>
 <g id="Layer_x0020_1">
  <metadata id="CorelCorpID_0Corel-Layer"/>
  <path class="fil0" d="M1024 -0.0011811c565.541,0 1024,458.461 1024,1024 0,565.541 -458.461,1024 -1024,1024 -565.541,0 -1024,-458.461 -1024,-1024 0,-565.541 458.461,-1024 1024,-1024z"/>
  <g style="clip-path:url(#id0)">
   <g id="_466419568">
    <g>
     <polygon id="_4664179601" class="fil1" points="1432.33,464 2568.21,1599.88 2568.21,1623.22 1432.33,487.334 "/>
     <polygon id="_466419856" class="fil1" points="1432.33,487.334 2568.21,1623.22 2568.21,1884.62 1432.33,748.736 "/>
     <polygon id="_466410664" class="fil1" points="1502.33,748.736 2638.22,1884.62 2638.22,1907.95 1502.33,772.069 "/>
     <polygon id="_466418752" class="fil1" points="1502.33,772.069 2638.22,1907.95 2638.22,2071.2 1502.33,935.314 "/>
     <polygon id="_466415320" class="fil1" points="1502.33,935.314 2638.22,2071.2 2638.22,2537.68 1502.33,1401.79 "/>
     <polygon id="_466418560" class="fil1" points="1502.33,1401.79 2638.22,2537.68 2638.22,2537.95 1502.33,1402.07 "/>
     <polygon id="_466415704" class="fil1" points="1502.33,1402.07 2638.22,2537.95 2638.22,2539.39 1502.33,1403.5 "/>
     <polygon id="_466417144" class="fil1" points="1502.33,1403.5 2638.22,2539.39 2637.9,2539.39 1502.02,1403.5 "/>
     <polygon id="_466417120" class="fil1" points="1502.02,1403.5 2637.9,2539.39 2636.21,2547.16 1500.33,1411.28 "/>
     <polygon id="_466421344" class="fil1" points="1500.33,1411.28 2636.21,2547.16 2588.82,2656.73 1452.94,1520.85 "/>
     <polygon id="_466411600" class="fil1" points="1452.94,1520.85 2588.82,2656.73 2575.4,2689.41 1439.51,1553.53 "/>
     <polygon id="_466421008" class="fil1" points="1439.98,1553.53 2575.86,2689.41 2575.86,2712.24 2575.71,2713.77 2575.26,2715.21 2574.55,2716.51 2573.62,2717.64 2572.48,2718.57 2571.18,2719.28 2569.75,2719.73 2568.21,2719.88 1432.33,1584 1433.87,1583.85 1435.3,1583.4 1436.6,1582.69 1437.73,1581.76 1438.67,1580.62 1439.38,1579.33 1439.82,1577.89 1439.98,1576.36 "/>
     <polygon id="_466416496" class="fil1" points="1432.33,1584 2568.21,2719.88 2544.88,2719.88 1409,1584 "/>
     <polygon id="_466420288" class="fil1" points="1409,1584 2544.88,2719.88 1704.88,2719.88 569,1584 "/>
     <polygon id="_466412968" class="fil1" points="569,1584 1704.88,2719.88 1681.55,2719.88 545.666,1584 "/>
    </g>
    <path id="_466420312" class="fil1" d="M569 464l839.999 0 23.3339 0 0 23.3339 -0.00236221 261.402 46.6689 0 23.3339 0 0 23.3339 0 163.245 0 466.479 0 0.276378 0 1.43268 -0.311811 0 -1.6937 7.77284 -47.387 109.573 -13.4268 32.6788 0.465355 0 0 22.8284c0,4.20591 -3.43937,7.64528 -7.64646,7.64528l-23.3339 0 -839.999 0 -23.3339 0 0 -23.3339 0 -1073.33 0 -23.3339 23.3339 0z"/>
   </g>
  </g>
  <path class="fil2" d="M1024 -0.0011811c565.541,0 1024,458.461 1024,1024 0,565.541 -458.461,1024 -1024,1024 -565.541,0 -1024,-458.461 -1024,-1024 0,-565.541 458.461,-1024 1024,-1024z"/>
  <polygon class="fil3" points="569,464 1409,464 1432.33,464 1432.33,487.334 1432.33,1560.67 1432.33,1584 1409,1584 569,1584 545.666,1584 545.666,1560.67 545.666,487.334 545.666,464 "/>
  <polygon class="fil4" points="709.003,1327.33 1269,1327.33 1269,1373.99 709.003,1373.99 "/>
  <polygon class="fil4" points="709.003,1187.32 1269,1187.32 1269,1233.99 709.003,1233.99 "/>
  <polygon class="fil4" points="709.003,1047.32 1269,1047.32 1269,1093.99 709.003,1093.99 "/>
  <polygon class="fil4" points="709.003,907.315 1269,907.315 1269,953.983 709.003,953.983 "/>
  <polygon class="fil4" points="709.003,767.311 1269,767.311 1269,813.98 709.003,813.98 "/>
  <polygon class="fil4" points="709.003,627.308 1269,627.308 1269,673.975 709.003,673.975 "/>
  <polygon class="fil5" points="1502.33,935.314 1502.33,1403.5 1362.33,1403.5 1362.33,935.314 "/>
  <polygon class="fil6" points="1502.33,1401.79 1502.33,1402.07 1500.33,1411.28 1452.94,1520.85 1432.33,1571.01 1410.1,1520.58 1364.16,1411 1362.33,1402.07 1362.33,1401.79 "/>
  <polygon class="fil7" points="1385.67,748.736 1479,748.736 1502.33,748.736 1502.33,772.069 1502.33,935.314 1362.33,935.314 1362.33,772.069 1362.33,748.736 "/>
  <polygon class="fil8" points="1502.33,935.314 1502.33,1403.5 1432.33,1403.5 1432.33,935.314 "/>
  <polygon class="fil9" points="1502.33,1401.79 1502.33,1402.07 1500.33,1411.28 1452.94,1520.85 1432.33,1571.01 1432.33,1571 1432.33,1401.79 "/>
  <polygon class="fil10" points="1432.33,748.736 1479,748.736 1502.33,748.736 1502.33,772.069 1502.33,935.314 1432.33,935.314 "/>
  <path class="fil11" d="M1424.69 1553.53l15.2929 0 0 22.8284c0,4.20591 -3.43937,7.64528 -7.64646,7.64528l0 0c-4.20709,0 -7.64646,-3.43937 -7.64646,-7.64528l0 -22.8284z"/>
  <rect class="fil12" x="1423.15" y="1028.74" width="18.3609" height="280"/>
 </g>
</svg>
